<?xml version="1.0" encoding="UTF-8" standalone="no"?>
<svg
   width="32"
   height="32"
   version="1.1"
   id="svg2"
   sodipodi:docname="icon.svg"
   inkscape:version="1.3.2 (091e20ef0f, 2023-11-25, custom)"
   xmlns:inkscape="http://www.inkscape.org/namespaces/inkscape"
   xmlns:sodipodi="http://sodipodi.sourceforge.net/DTD/sodipodi-0.dtd"
   xmlns="http://www.w3.org/2000/svg"
   xmlns:svg="http://www.w3.org/2000/svg">
  <sodipodi:namedview
     id="namedview2"
     pagecolor="#ffffff"
     bordercolor="#000000"
     borderopacity="0.25"
     inkscape:showpageshadow="2"
     inkscape:pageopacity="0.0"
     inkscape:pagecheckerboard="0"
     inkscape:deskcolor="#d1d1d1"
     inkscape:zoom="9.5459416"
     inkscape:cx="20.427529"
     inkscape:cy="22.365525"
     inkscape:window-width="1920"
     inkscape:window-height="1042"
     inkscape:window-x="0"
     inkscape:window-y="38"
     inkscape:window-maximized="1"
     inkscape:current-layer="material-you" />
  <defs
     id="materia">
    <style
       id="current-color-scheme"
       type="text/css">
   .ColorScheme-Background {color:#181818; } .ColorScheme-ButtonBackground { color:#343434; } .ColorScheme-Highlight { color:#4285f4; } .ColorScheme-Text { color:#dfdfdf; } .ColorScheme-ViewBackground { color:#242424; } .ColorScheme-NegativeText { color:#f44336; } .ColorScheme-PositiveText { color:#4caf50; } .ColorScheme-NeutralText { color:#ff9800; }
  </style>
  </defs>
  <g
     id="22-22-material-you"
     transform="translate(27,5.0000005)"
     style="opacity:1;fill:currentColor"
     class="ColorScheme-Text">
    <rect
       style="opacity:0.00100002"
       width="22"
       height="22"
       x="4.7904868"
       y="5"
       id="rect1" />
    <path
       d="m 17.474698,13.052632 a 1.2631579,1.2631579 0 0 0 -1.263158,1.263157 1.2631579,1.2631579 0 0 0 1.263158,1.263158 1.2631579,1.2631579 0 0 0 1.263157,-1.263158 1.2631579,1.2631579 0 0 0 -1.263157,-1.263157 m 0,3.368421 a 1.2631579,1.2631579 0 0 0 -1.263158,1.263158 1.2631579,1.2631579 0 0 0 1.263158,1.263157 1.2631579,1.2631579 0 0 0 1.263157,-1.263157 1.2631579,1.2631579 0 0 0 -1.263157,-1.263158 m -3.368422,3.789473 a 0.84210526,0.84210526 0 0 0 -0.842105,0.842106 0.84210526,0.84210526 0 0 0 0.842105,0.842105 0.84210526,0.84210526 0 0 0 0.842106,-0.842105 0.84210526,0.84210526 0 0 0 -0.842106,-0.842106 m 0,-7.157894 a 1.2631579,1.2631579 0 0 0 -1.263157,1.263157 1.2631579,1.2631579 0 0 0 1.263157,1.263158 1.2631579,1.2631579 0 0 0 1.263158,-1.263158 1.2631579,1.2631579 0 0 0 -1.263158,-1.263157 m 3.368422,10.105263 A 0.42105263,0.42105263 0 0 0 17.053645,23.578947 0.42105263,0.42105263 0 0 0 17.474698,24 0.42105263,0.42105263 0 0 0 17.89575,23.578947 0.42105263,0.42105263 0 0 0 17.474698,23.157895 m 0,-2.947369 a 0.84210526,0.84210526 0 0 0 -0.842106,0.842106 0.84210526,0.84210526 0 0 0 0.842106,0.842105 0.84210526,0.84210526 0 0 0 0.842105,-0.842105 0.84210526,0.84210526 0 0 0 -0.842105,-0.842106 m 5.894736,-2.947368 a 0.42105263,0.42105263 0 0 0 -0.421052,0.421053 0.42105263,0.42105263 0 0 0 0.421052,0.421052 0.42105263,0.42105263 0 0 0 0.421053,-0.421052 0.42105263,0.42105263 0 0 0 -0.421053,-0.421053 m -2.526315,-7.157895 a 0.84210526,0.84210526 0 0 0 -0.842106,0.842105 0.84210526,0.84210526 0 0 0 0.842106,0.842106 0.84210526,0.84210526 0 0 0 0.842105,-0.842106 0.84210526,0.84210526 0 0 0 -0.842105,-0.842105 m 0,3.368421 a 0.84210526,0.84210526 0 0 0 -0.842106,0.842105 0.84210526,0.84210526 0 0 0 0.842106,0.842106 0.84210526,0.84210526 0 0 0 0.842105,-0.842106 0.84210526,0.84210526 0 0 0 -0.842105,-0.842105 m 0,6.736842 a 0.84210526,0.84210526 0 0 0 -0.842106,0.842106 0.84210526,0.84210526 0 0 0 0.842106,0.842105 0.84210526,0.84210526 0 0 0 0.842105,-0.842105 0.84210526,0.84210526 0 0 0 -0.842105,-0.842106 m 0,-3.368421 a 0.84210526,0.84210526 0 0 0 -0.842106,0.842106 0.84210526,0.84210526 0 0 0 0.842106,0.842105 0.84210526,0.84210526 0 0 0 0.842105,-0.842105 0.84210526,0.84210526 0 0 0 -0.842105,-0.842106 m -6.736843,-0.421052 a 1.2631579,1.2631579 0 0 0 -1.263157,1.263158 1.2631579,1.2631579 0 0 0 1.263157,1.263157 1.2631579,1.2631579 0 0 0 1.263158,-1.263157 1.2631579,1.2631579 0 0 0 -1.263158,-1.263158 m 0,-4.631579 a 0.84210526,0.84210526 0 0 0 0.842106,-0.842106 0.84210526,0.84210526 0 0 0 -0.842106,-0.842105 0.84210526,0.84210526 0 0 0 -0.842105,0.842105 0.84210526,0.84210526 0 0 0 0.842105,0.842106 m 0,-2.947369 A 0.42105263,0.42105263 0 0 0 14.527329,8.421053 0.42105263,0.42105263 0 0 0 14.106276,8 0.42105263,0.42105263 0 0 0 13.685224,8.421053 0.42105263,0.42105263 0 0 0 14.106276,8.842105 m 0,14.31579 A 0.42105263,0.42105263 0 0 0 13.685224,23.578947 0.42105263,0.42105263 0 0 0 14.106276,24 0.42105263,0.42105263 0 0 0 14.527329,23.578947 0.42105263,0.42105263 0 0 0 14.106276,23.157895 M 8.2115398,17.263158 a 0.42105263,0.42105263 0 0 0 -0.421053,0.421053 0.42105263,0.42105263 0 0 0 0.421053,0.421052 0.42105263,0.42105263 0 0 0 0.421052,-0.421052 0.42105263,0.42105263 0 0 0 -0.421052,-0.421053 M 17.474698,8.842105 A 0.42105263,0.42105263 0 0 0 17.89575,8.421053 0.42105263,0.42105263 0 0 0 17.474698,8 0.42105263,0.42105263 0 0 0 17.053645,8.421053 0.42105263,0.42105263 0 0 0 17.474698,8.842105 m 0,2.947369 a 0.84210526,0.84210526 0 0 0 0.842105,-0.842106 0.84210526,0.84210526 0 0 0 -0.842105,-0.842105 0.84210526,0.84210526 0 0 0 -0.842106,0.842105 0.84210526,0.84210526 0 0 0 0.842106,0.842106 m 5.894736,2.947368 a 0.42105263,0.42105263 0 0 0 0.421053,-0.421053 0.42105263,0.42105263 0 0 0 -0.421053,-0.421052 0.42105263,0.42105263 0 0 0 -0.421052,0.421052 0.42105263,0.42105263 0 0 0 0.421052,0.421053 M 10.737855,10.105263 a 0.84210526,0.84210526 0 0 0 -0.8421052,0.842105 0.84210526,0.84210526 0 0 0 0.8421052,0.842106 0.84210526,0.84210526 0 0 0 0.842106,-0.842106 0.84210526,0.84210526 0 0 0 -0.842106,-0.842105 m -2.5263152,3.789474 a 0.42105263,0.42105263 0 0 0 -0.421053,0.421052 0.42105263,0.42105263 0 0 0 0.421053,0.421053 0.42105263,0.42105263 0 0 0 0.421052,-0.421053 0.42105263,0.42105263 0 0 0 -0.421052,-0.421052 m 2.5263152,-0.421053 a 0.84210526,0.84210526 0 0 0 -0.8421052,0.842105 0.84210526,0.84210526 0 0 0 0.8421052,0.842106 0.84210526,0.84210526 0 0 0 0.842106,-0.842106 0.84210526,0.84210526 0 0 0 -0.842106,-0.842105 m 0,6.736842 a 0.84210526,0.84210526 0 0 0 -0.8421052,0.842106 0.84210526,0.84210526 0 0 0 0.8421052,0.842105 0.84210526,0.84210526 0 0 0 0.842106,-0.842105 0.84210526,0.84210526 0 0 0 -0.842106,-0.842106 m 0,-3.368421 a 0.84210526,0.84210526 0 0 0 -0.8421052,0.842106 0.84210526,0.84210526 0 0 0 0.8421052,0.842105 0.84210526,0.84210526 0 0 0 0.842106,-0.842105 0.84210526,0.84210526 0 0 0 -0.842106,-0.842106 z"
       id="path1-36"
       style="stroke-width:0.842105" />
  </g>
  <g
     id="material-you"
     class="ColorScheme-Text"
     style="opacity:1;fill:currentColor"
     transform="translate(35.302961,-8.4852813)">
    <rect
       style="opacity:0.00100002"
       width="32"
       height="32"
       x="-35.302959"
       y="8.485281"
       id="rect2" />
    <path
       d="m -16.776643,20.064229 a 1.8947368,1.8947368 0 0 0 -1.894737,1.894735 1.8947368,1.8947368 0 0 0 1.894737,1.894737 1.8947368,1.8947368 0 0 0 1.894736,-1.894737 1.8947368,1.8947368 0 0 0 -1.894736,-1.894735 m 0,5.052631 a 1.8947368,1.8947368 0 0 0 -1.894737,1.894737 1.8947368,1.8947368 0 0 0 1.894737,1.894736 1.8947368,1.8947368 0 0 0 1.894736,-1.894736 1.8947368,1.8947368 0 0 0 -1.894736,-1.894737 m -5.052633,5.68421 a 1.2631579,1.2631579 0 0 0 -1.263157,1.263159 1.2631579,1.2631579 0 0 0 1.263157,1.263157 1.2631579,1.2631579 0 0 0 1.263159,-1.263157 1.2631579,1.2631579 0 0 0 -1.263159,-1.263159 m 0,-10.736841 a 1.8947368,1.8947368 0 0 0 -1.894735,1.894735 1.8947368,1.8947368 0 0 0 1.894735,1.894737 1.8947368,1.8947368 0 0 0 1.894737,-1.894737 1.8947368,1.8947368 0 0 0 -1.894737,-1.894735 m 5.052633,15.157894 a 0.63157894,0.63157894 0 0 0 -0.631579,0.631578 0.63157894,0.63157894 0 0 0 0.631579,0.63158 0.63157894,0.63157894 0 0 0 0.631578,-0.63158 0.63157894,0.63157894 0 0 0 -0.631578,-0.631578 m 0,-4.421053 a 1.2631579,1.2631579 0 0 0 -1.263159,1.263159 1.2631579,1.2631579 0 0 0 1.263159,1.263157 1.2631579,1.2631579 0 0 0 1.263158,-1.263157 1.2631579,1.2631579 0 0 0 -1.263158,-1.263159 m 8.8421041,-4.421052 a 0.63157894,0.63157894 0 0 0 -0.631578,0.631579 0.63157894,0.63157894 0 0 0 0.631578,0.631578 0.63157894,0.63157894 0 0 0 0.6315795,-0.631578 0.63157894,0.63157894 0 0 0 -0.6315795,-0.631579 M -11.724011,15.643176 a 1.2631579,1.2631579 0 0 0 -1.263159,1.263157 1.2631579,1.2631579 0 0 0 1.263159,1.263159 1.2631579,1.2631579 0 0 0 1.263157,-1.263159 1.2631579,1.2631579 0 0 0 -1.263157,-1.263157 m 0,5.052631 a 1.2631579,1.2631579 0 0 0 -1.263159,1.263157 1.2631579,1.2631579 0 0 0 1.263159,1.263159 1.2631579,1.2631579 0 0 0 1.263157,-1.263159 1.2631579,1.2631579 0 0 0 -1.263157,-1.263157 m 0,10.105263 a 1.2631579,1.2631579 0 0 0 -1.263159,1.263159 1.2631579,1.2631579 0 0 0 1.263159,1.263157 1.2631579,1.2631579 0 0 0 1.263157,-1.263157 1.2631579,1.2631579 0 0 0 -1.263157,-1.263159 m 0,-5.052632 a 1.2631579,1.2631579 0 0 0 -1.263159,1.263159 1.2631579,1.2631579 0 0 0 1.263159,1.263158 1.2631579,1.2631579 0 0 0 1.263157,-1.263158 1.2631579,1.2631579 0 0 0 -1.263157,-1.263159 M -21.829276,25.11686 a 1.8947368,1.8947368 0 0 0 -1.894735,1.894737 1.8947368,1.8947368 0 0 0 1.894735,1.894736 1.8947368,1.8947368 0 0 0 1.894737,-1.894736 1.8947368,1.8947368 0 0 0 -1.894737,-1.894737 m 0,-6.947368 a 1.2631579,1.2631579 0 0 0 1.263159,-1.263159 1.2631579,1.2631579 0 0 0 -1.263159,-1.263157 1.2631579,1.2631579 0 0 0 -1.263157,1.263157 1.2631579,1.2631579 0 0 0 1.263157,1.263159 m 0,-4.421053 a 0.63157894,0.63157894 0 0 0 0.63158,-0.631578 0.63157894,0.63157894 0 0 0 -0.63158,-0.63158 0.63157894,0.63157894 0 0 0 -0.631578,0.63158 0.63157894,0.63157894 0 0 0 0.631578,0.631578 m 0,21.473684 a 0.63157894,0.63157894 0 0 0 -0.631578,0.631578 0.63157894,0.63157894 0 0 0 0.631578,0.63158 0.63157894,0.63157894 0 0 0 0.63158,-0.63158 0.63157894,0.63157894 0 0 0 -0.63158,-0.631578 m -8.842103,-8.842105 a 0.63157894,0.63157894 0 0 0 -0.63158,0.631579 0.63157894,0.63157894 0 0 0 0.63158,0.631578 0.63157894,0.63157894 0 0 0 0.631578,-0.631578 0.63157894,0.63157894 0 0 0 -0.631578,-0.631579 m 13.894736,-12.631579 a 0.63157894,0.63157894 0 0 0 0.631578,-0.631578 0.63157894,0.63157894 0 0 0 -0.631578,-0.63158 0.63157894,0.63157894 0 0 0 -0.631579,0.63158 0.63157894,0.63157894 0 0 0 0.631579,0.631578 m 0,4.421053 a 1.2631579,1.2631579 0 0 0 1.263158,-1.263159 1.2631579,1.2631579 0 0 0 -1.263158,-1.263157 1.2631579,1.2631579 0 0 0 -1.263159,1.263157 1.2631579,1.2631579 0 0 0 1.263159,1.263159 m 8.8421041,4.421052 a 0.63157894,0.63157894 0 0 0 0.6315795,-0.63158 0.63157894,0.63157894 0 0 0 -0.6315795,-0.631578 0.63157894,0.63157894 0 0 0 -0.631578,0.631578 0.63157894,0.63157894 0 0 0 0.631578,0.63158 M -26.881907,15.643176 a 1.2631579,1.2631579 0 0 0 -1.263157,1.263157 1.2631579,1.2631579 0 0 0 1.263157,1.263159 1.2631579,1.2631579 0 0 0 1.263159,-1.263159 1.2631579,1.2631579 0 0 0 -1.263159,-1.263157 m -3.789472,5.68421 a 0.63157894,0.63157894 0 0 0 -0.63158,0.631578 0.63157894,0.63157894 0 0 0 0.63158,0.63158 0.63157894,0.63157894 0 0 0 0.631578,-0.63158 0.63157894,0.63157894 0 0 0 -0.631578,-0.631578 m 3.789472,-0.631579 a 1.2631579,1.2631579 0 0 0 -1.263157,1.263157 1.2631579,1.2631579 0 0 0 1.263157,1.263159 1.2631579,1.2631579 0 0 0 1.263159,-1.263159 1.2631579,1.2631579 0 0 0 -1.263159,-1.263157 m 0,10.105263 a 1.2631579,1.2631579 0 0 0 -1.263157,1.263159 1.2631579,1.2631579 0 0 0 1.263157,1.263157 1.2631579,1.2631579 0 0 0 1.263159,-1.263157 1.2631579,1.2631579 0 0 0 -1.263159,-1.263159 m 0,-5.052632 a 1.2631579,1.2631579 0 0 0 -1.263157,1.263159 1.2631579,1.2631579 0 0 0 1.263157,1.263158 1.2631579,1.2631579 0 0 0 1.263159,-1.263158 1.2631579,1.2631579 0 0 0 -1.263159,-1.263159 z"
       id="path1-36-7"
       style="fill:currentColor;stroke-width:1.26316" />
  </g>
</svg>
